<!--Scalable Vector Graphic-->
<svg xmlns="http://www.w3.org/2000/svg" xmlns:xlink="http://www.w3.org/1999/xlink" version="1.1" class="btn-lupa-interno" x="0" y="0" viewBox="0 0 630 630.6" xml:space="preserve" enable-background="new 0 0 630 630.6">
<path fill="#fff" d="M262.8 2.8c-143.6 0-260 116.4-260 260s116.4 260 260 260 260-116.4 260-260S406.4 2.8 262.8 2.8zM262.8 456.8c-107.1 0-194-86.9-194-194s86.9-194 194-194 194 86.9 194 194S369.9 456.8 262.8 456.8zM610.2 529.4L496.5 416.6c0 0-11.4 21.5-34.2 46.5 -19.7 21.6-46.8 35.2-46.8 35.2l113.7 112.8c22.5 22.4 59 22.2 81.3-0.3C632.9 588.2 632.7 551.8 610.2 529.4z"
     />
</svg>