<svg version="1.1" id="Capa_1" xmlns="http://www.w3.org/2000/svg" xmlns:xlink="http://www.w3.org/1999/xlink" x="0px" y="0px" viewBox="-280 372 50 50" style="enable-background:new -280 372 50 50;" xml:space="preserve">
          <style type="text/css">
            .st0 {
              fill: #2950A2;
            }
          </style>
          <path class="st1" fill="#AABBE0" d="M-231,379l-0.3-1l-0.5-1l-0.6-0.7l-0.7-0.6l-0.9-0.5l-1-0.3l-1-0.1h-31.5l-1,0.1l-1,0.3l-1,0.5l-0.7,0.6
	l-0.3,0.4h30.7c4.1,0,7.6,2.8,7.6,6v4.1v4.9v20.9l0.2-0.2l0.7-0.6l0.6-0.7l0.5-0.9l0.3-1l0.2-1v-28L-231,379z" />
          <g>
            <path class="st0" d="M-279.3,413.8c0,3,3.2,5.4,7,5.4h8.6l-15.6-10.1V413.8z" />
            <path class="st0" d="M-263.6,394.2c-1,0-1.7,0.3-2.2,0.9c-0.6,0.6-0.8,1.5-0.8,2.6c0,1.1,0.3,1.9,0.8,2.5c0.5,0.6,1.3,0.9,2.2,0.9
		c1,0,1.7-0.3,2.3-0.9c0.6-0.6,0.8-1.5,0.8-2.5s-0.3-1.9-0.8-2.6C-261.9,394.5-262.6,394.2-263.6,394.2z" />
            <path class="st0" d="M-241.7,413.4l-2.1,5.8h2.8c3.9,0,7-2.4,7-5.4v-1v-21.1L-241.7,413.4z" />
            <path class="st0" d="M-234.1,382.7c0.1-3-3-5.5-6.9-5.5h-31.1h-0.1c-3.9,0-7,2.4-7,5.4v23.3l6.6,3.4l7.5,4l11.2,5.9h1.5l3.2-5.8
		l15.1-26.6V382.7z M-260.3,401c-0.8,0.9-1.9,1.3-3.3,1.3c-0.9,0-1.7-0.2-2.3-0.5c-0.3-0.2-0.5-0.4-0.8-0.6v0.9h-1.4v-12.2h1.4v4.1
		c0.2-0.2,0.5-0.4,0.7-0.6c0.7-0.4,1.4-0.6,2.3-0.6c1.4,0,2.5,0.4,3.3,1.3c0.8,0.8,1.2,2,1.2,3.4
		C-259.2,398.9-259.5,400.3-260.3,401z M-253.7,402.4h-1.4l-3.5-9.1h1.6l2,5.5c0.2,0.6,0.4,1.2,0.6,1.8c0.1-0.5,0.3-1.1,0.6-1.7
		l2-5.6h1.6L-253.7,402.4z" />
          </g>
        </svg>