<svg xmlns="http://www.w3.org/2000/svg" xmlns:xlink="http://www.w3.org/1999/xlink" version="1.1" id="share-button" class="redes-sociales" width="512" height="512" viewBox="0 0 512 512">
					<path d="M420 18.4h-328.1c-40.7 0-73.6 32.9-73.6 73.6v328.1c0 40.7 33 73.6 73.6 73.6h328.1c40.6 0 73.6-32.9 73.6-73.6v-328.1c0-40.6-33-73.5-73.6-73.5zM381.9 441c-47.9 0-86.7-38.8-86.7-86.6 0-2.6 0.2-5 0.4-7.6l-156.7-65.4c-8.8 4.4-18.8 6.9-29.3 6.9-36.5 0-66.1-29.6-66.1-66 0-36.5 29.6-66 66.1-66 17.4 0 33.3 6.9 45.1 17.9l112.5-59.7c1.5-0.8 3.1-1.4 4.6-2 4.7-23.7 25.5-41.5 50.6-41.5 28.5 0 51.5 23.1 51.5 51.5 0 28.5-23.1 51.5-51.5 51.5-14.9 0-28.3-6.4-37.8-16.6l-109.4 58c0.2 2.2 0.3 4.4 0.3 6.7 0 2.4-0.1 4.8-0.4 7.2l147.6 61.6c15.5-14.5 36.2-23.4 59.1-23.4 47.8 0 86.6 38.8 86.6 86.7 0 47.8-38.7 86.6-86.6 86.6zM162.4 224.1l12.7 5.3c0.3-2.4 0.4-4.8 0.4-7.2 0-2.3-0.1-4.5-0.3-6.7l-14.8 7.9c0.7 0.3 1.4 0.4 2.1 0.7z"/></svg>