<svg xmlns="http://www.w3.org/2000/svg" xmlns:xlink="http://www.w3.org/1999/xlink" version="1.1" id="Capa_1" x="0" y="0" viewBox="0 0 24 24" xml:space="preserve" enable-background="new 0 0 24 24"><path d="M12 0C5.4 0 0 5.4 0 12c0 6.6 5.4 12 12 12s12-5.4 12-12C24 5.4 18.6 0 12 0zM10 18c0-2 2.9-2 2.9 0S10 20 10 18zM12.7 12.7l-0.1 2c0 0.5-2.2 0.7-2.3 0l-0.1-2.6c0-0.6 0.2-1.2 0.9-1.2h0.1c1.9 0 2.9-2.3 1.5-3.7C12 6.6 10.9 6.6 10 6.9 9.7 7 8.4 7.8 8.3 7.2 7.7 4.9 10.2 4.6 12 4.7c2.3 0.2 4 1.8 4 4.1C16 10.9 14.7 12.5 12.7 12.7z"/></svg>