<svg xmlns="http://www.w3.org/2000/svg" xmlns:xlink="http://www.w3.org/1999/xlink" version="1.1" id="Capa_1" x="0" y="0" viewBox="0 0 960 560" xml:space="preserve" enable-background="new 0 0 960 560"><style type="text/css">
	.st0{fill:#1659A2;}
</style><g id="_x36_"><g id="XMLID_53_"><path id="XMLID_59_" class="st0" d="M525.7 70.9c-2.8-1.9-6.5-0.9-8.4 0.9l-168 118.5c-0.9 0-0.9 0-1.9 0H228.9c-15.9 0-28.9 13.1-28.9 28.9v128.8c0 15.9 13.1 28.9 28.9 28.9h117.6c0.9 0 0.9 0 1.9 0l168 118.5c1.9 0.9 2.8 1.9 4.7 1.9 0.9 0 2.8 0 3.7-0.9 2.8-1.9 4.7-4.7 4.7-7.5V78.4C529.5 74.7 528.5 71.9 525.7 70.9z"/><g id="XMLID_56_"><path id="XMLID_57_" class="st0" d="M616.3 150.3c2.8 3.7 4.7 6.5 7.5 10.3 24.3 36.4 37.3 78.4 37.3 121.3 0 41.1-12.1 82.1-33.6 116.7 -2.8 3.7-4.7 7.5-7.5 11.2l-14.9-40.1c14-27.1 22.4-56.9 22.4-87.7 0-32.7-8.4-64.4-24.3-91.5 -1.9-3.7-4.7-7.5-6.5-11.2"/></g><g id="XMLID_54_"><path id="XMLID_55_" class="st0" d="M658.3 515.2c1.9-1.9 3.7-3.7 5.6-5.6 62.5-60.7 96.1-141.9 96.1-227.7 0-87.7-37.3-172.7-101.7-232.4 -1.9-1.9-3.7-2.8-5.6-4.7l-12.1 35.5c54.1 53.2 84.9 126.9 84.9 202.5 0 74.7-28.9 144.7-80.3 197.9L658.3 515.2z"/></g></g></g></svg>