<svg xmlns="http://www.w3.org/2000/svg" xmlns:xlink="http://www.w3.org/1999/xlink" version="1.1" id="Capa_1" x="0" y="0" viewBox="0 0 960 560" xml:space="preserve" enable-background="new 0 0 960 560"><style type="text/css">
	.st0{fill:#1659A2;}
</style><g id="_x35_"><g id="XMLID_50_"><circle id="XMLID_52_" class="st0" cx="480" cy="332.3" r="78.4"/><path class="st0" d="M480 462.9c-71.9 0-130.7-58.8-130.7-130.7S408.1 201.6 480 201.6s130.7 58.8 130.7 130.7S551.9 462.9 480 462.9zM480 226.8c-57.9 0-105.5 47.6-105.5 105.5S422.1 437.7 480 437.7s105.5-47.6 105.5-105.5S537.9 226.8 480 226.8zM698.4 526.4H261.6c-34.5 0-61.6-28-61.6-61.6v-280c0-34.5 28-61.6 61.6-61.6h55.1l38.3-58.8c11.2-17.7 33.6-30.8 51.3-30.8h144.7c17.7 0 40.1 13.1 51.3 30.8l38.3 58.8h55.1c34.5 0 61.6 28 61.6 61.6v280C760 499.3 732 526.4 698.4 526.4zM261.6 148.4c-19.6 0-36.4 15.9-36.4 36.4v280c0 19.6 15.9 36.4 36.4 36.4h435.9c19.6 0 36.4-15.9 36.4-36.4v-280c0-19.6-15.9-36.4-36.4-36.4h-69.1l-46.7-70.9c-7.5-10.3-21.5-18.7-29.9-18.7H407.2c-8.4 0-22.4 8.4-29.9 18.7l-46.7 70.9H261.6zM579.9 147.5l-25.2-38.3c-5.6-9.3-17.7-15.9-27.1-15.9h-95.2c-9.3 0-21.5 7.5-27.1 15.9l-25.2 38.3C380.1 147.5 579.9 147.5 579.9 147.5z"/></g></g></svg>