<svg xmlns="http://www.w3.org/2000/svg" xmlns:xlink="http://www.w3.org/1999/xlink" version="1.1" id="Capa_1" x="0" y="0" viewBox="0 0 960 560" xml:space="preserve" enable-background="new 0 0 960 560">
<style type="text/css">
	.st0{fill:#1659A2; transition: 0.2s;}.st0:hover{fill:#FF9900;transition: 0.2s;
	}
</style>
<g id="_x31_"><path class="st0" id="icon1" d="M675.1 9.3H284.9c-19.6 0-36.4 19.6-36.4 42.9v455.5c0 23.3 16.8 42.9 36.4 42.9h390.1c20.5 0 36.4-19.6 36.4-42.9V52.3C711.5 28.9 694.7 9.3 675.1 9.3zM683.5 507.7c0 9.3-5.6 14.9-8.4 14.9H342.8V37.3h206.3V210l40.1-42.9 0 0 41.1 43.9h0.9V37.3h43.9c3.7 0 8.4 6.5 8.4 14.9V507.7L683.5 507.7z"/></g></svg>