<?xml version="1.0" encoding="utf-8"?>
<!-- Generator: Adobe Illustrator 19.0.0, SVG Export Plug-In . SVG Version: 6.00 Build 0)  -->
<svg version="1.1" id="Layer_1" xmlns="http://www.w3.org/2000/svg" xmlns:xlink="http://www.w3.org/1999/xlink" x="0px" y="0px"
	 viewBox="0 0 30 30" enable-background="new 0 0 30 30" xml:space="preserve">
<rect id="XMLID_69_" fill="#005AA7" width="30" height="30"/>
<circle id="XMLID_66_" fill="#FFFFFF" cx="15.125" cy="15.25" r="13.5"/>
<g id="XMLID_70_">
	<path id="XMLID_68_" fill="#005AA7" d="M11.531,14.179c-0.003,0.73,0,1.46,0.003,2.19c1.224,0.04,2.45,0.021,3.674,0.04
		c-0.54,2.714-4.232,3.594-6.185,1.822c-2.009-1.555-1.914-4.965,0.175-6.409c1.46-1.165,3.536-0.877,4.996,0.132
		c0.573-0.531,1.11-1.098,1.628-1.687c-1.214-0.969-2.705-1.659-4.29-1.585c-3.309-0.11-6.351,2.788-6.406,6.096
		c-0.212,2.705,1.567,5.357,4.079,6.314c2.502,0.963,5.71,0.307,7.308-1.941c1.055-1.42,1.282-3.248,1.159-4.965
		C15.622,14.17,13.576,14.173,11.531,14.179z"/>
	<path id="XMLID_67_" fill="#005AA7" d="M23.484,12.336c-0.61,0-1.217,0-1.825,0c-0.006,0.61-0.012,1.221-0.015,1.834
		c-0.613,0.003-1.224,0.006-1.834,0.012c0,0.61,0,1.217,0,1.825c0.61,0.006,1.224,0.012,1.834,0.018
		c0.006,0.61,0.006,1.221,0.012,1.831c0.61,0,1.217,0,1.828,0c0.003-0.61,0.006-1.221,0.012-1.834
		c0.613-0.006,1.224-0.009,1.834-0.015c0-0.607,0-1.217,0-1.825c-0.61-0.006-1.224-0.006-1.834-0.012
		C23.49,13.559,23.487,12.946,23.484,12.336z"/>
</g>
</svg>
