<svg xmlns="http://www.w3.org/2000/svg" xmlns:xlink="http://www.w3.org/1999/xlink" version="1.1" id="Capa_1" x="0" y="0" viewBox="0 0 960 560" xml:space="preserve" enable-background="new 0 0 960 560"><style type="text/css">
	.st0{fill:#1659A2;}
</style><g id="_x38_"><g id="XMLID_60_"><path class="st0" d="M445.5 495.6c-4.7 0-9.3-2.8-12.1-6.5L324.1 310.8c-2.8-3.7-2.8-9.3-0.9-14l54.1-111.1c2.8-4.7 7.5-7.5 13.1-7.5h153.1c5.6 0 10.3 2.8 13.1 8.4l54.1 113.9c1.9 4.7 1.9 9.3-0.9 14L502.4 489.1c-3.7 5.6-10.3 7.5-15.9 6.5 -6.5-1.9-10.3-7.5-10.3-14v-154c0-3.7 1.9-7.5 4.7-10.3 10.3-9.3 15.9-17.7 15.9-23.3 0-13.1-14-22.4-27.1-22.4 -14.9 0-29.9 8.4-29.9 22.4 0 5.6 5.6 14 15.9 23.3 2.8 2.8 4.7 6.5 4.7 10.3v154c0 6.5-4.7 12.1-10.3 14C448.3 495.6 447.3 495.6 445.5 495.6zM504.3 334.1v98l79.3-126.9L536 206.3H399.7l-47.6 96.1 78.4 128.8v-97.1c-14-14-20.5-27.1-20.5-40.1 0-28.9 26.1-51.3 58.8-51.3 27.1 0 55.1 20.5 55.1 51.3C524.8 307.1 517.3 320.1 504.3 334.1zM532.3 9.3h-126c-18.7 0-36.4 16.8-36.4 34.5v88.7c0 17.7 15.9 31.7 36.4 31.7h126c20.5 0 36.4-14 36.4-31.7V43.9C568.7 26.1 550.9 9.3 532.3 9.3z"/><rect x="466" y="522.7" class="st0" width="171.7" height="28"/></g></g></svg>