<svg xmlns="http://www.w3.org/2000/svg" xmlns:xlink="http://www.w3.org/1999/xlink" version="1.1" id="Capa_1" x="0" y="0" viewBox="0 0 960 560" xml:space="preserve" enable-background="new 0 0 960 560"><style type="text/css">
	.st0{fill:#1659A2;}
</style><g id="_x39_"><g id="XMLID_62_"><path id="XMLID_63_" class="st0" d="M396.9 199.7c0-44.8 37.3-81.2 83.1-81.2s83.1 36.4 83.1 81.2 -37.3 81.2-83.1 81.2S396.9 244.5 396.9 199.7L396.9 199.7zM481.9 550.7c-6.5 0-12.1-2.8-15.9-8.4l-149.3-238c0 0 0-0.9-0.9-0.9 -20.5-30.8-30.8-66.3-30.8-102.7C285.9 95.2 372.7 9.3 480 9.3s194.1 85.9 194.1 191.3c0 33.6-9.3 67.2-27.1 96.1 0 0.9-0.9 1.9-1.9 2.8L496.8 542.3C494 546.9 488.4 550.7 481.9 550.7L481.9 550.7zM349.3 286.5l132.5 210.9 130.7-213.7c0-0.9 0.9-1.9 1.9-2.8 14.9-24.3 23.3-51.3 23.3-79.3 0-85.9-70.9-154.9-157.7-154.9s-157.7 69.1-157.7 154c0 29.9 8.4 58.8 25.2 84C348.4 284.7 349.3 285.6 349.3 286.5z"/></g></g></svg>