<svg xmlns="http://www.w3.org/2000/svg" xmlns:xlink="http://www.w3.org/1999/xlink" version="1.1" x="0" y="0" viewBox="0 0 150 150" xml:space="preserve" enable-background="new 0 0 150 150"><style type="text/css">
	.st0{fill:#272727;}
	.st1{fill:#FCFCFC;}
</style><g id="Layer_1"><path class="st0" d="M75.1 0C33.9-0.2 0.2 33.1 0 74.2c-0.2 41.5 33.2 75.2 74.6 75.2 41.2 0.1 74.8-33.3 74.9-74.5C149.6 33.8 116.3 0.2 75.1 0z"/></g><g id="Capa_2"><path class="st1" d="M63.8 47.5c-4.2 0-8.4 0-12.6 0 -3.7 0-5.5 1.7-5.5 5.6 0.1 7.9 0 15.8 0 23.7 0 8 0 16.1 0 24.1 0 3.4 1.6 5.2 4.9 5.2 4.5 0.1 9 0.1 13.4 0 3.3 0 5.1-1.8 5.1-5.1 0-16.1 0-32.2 0-48.3C69.2 49.2 67.3 47.6 63.8 47.5zM107.4 77.2c0-7.8 0-15.5 0-23.3 0-5-1.1-6.2-6-6.3 -4.1-0.1-8.1 0-12.2 0 -3.6 0-5.4 1.9-5.4 5.4 0 15.9 0 31.9 0 47.8 0 3.7 1.9 5.5 5.7 5.5 3.9 0 7.9 0.1 11.8 0 5-0.1 6.2-1.3 6.2-6.2C107.4 92.4 107.4 84.8 107.4 77.2z"/></g></svg>