<svg xmlns="http://www.w3.org/2000/svg" xmlns:xlink="http://www.w3.org/1999/xlink" version="1.1" id="Capa_1" x="0" y="0" viewBox="0 0 50 50" xml:space="preserve" enable-background="new 0 0 50 50">
  <style type="text/css">
    .redes-sociales {
      fill: #FFFFFF;
    }
  </style>
  <path class="redes-sociales" d="M25 2.5C12.6 2.5 2.5 12.6 2.5 25S12.6 47.5 25 47.5 47.5 37.4 47.5 25 37.4 2.5 25 2.5zM30 21l-0.3 3.4h-3.5v11.7h-4.4V24.6h-2.3v-3.4h0.1 2.3v-2.3c0-1 0-2.5 0.7-3.5 0.8-1 1.8-1.7 3.6-1.7 2.9 0 4.2 0.4 4.2 0.4l-0.6 3.4c0 0-1-0.3-1.9-0.3 -0.9 0-1.7 0.3-1.7 1.2V21H30z"
  />
</svg>
