<svg xmlns="http://www.w3.org/2000/svg" xmlns:xlink="http://www.w3.org/1999/xlink" version="1.1" id="Capa_1" x="0" y="0" viewBox="0 0 960 560" xml:space="preserve" enable-background="new 0 0 960 560"><style type="text/css">
	.st0{fill:#1659A2;}
</style><g id="_x31_0"><path class="st0" d="M744.1 452.7L744.1 452.7c0-0.9 0-0.9 0-1.9V28c0-5.6-1.9-10.3-5.6-14 -4.7-2.8-9.3-4.7-14-4.7L411.9 30.8c-9.3 0.9-17.7 8.4-17.7 18.7v351.9c-18.7-13.1-43.9-20.5-70.9-20.5 -59.7 0-108.3 38.3-108.3 84.9s49.5 84.9 109.2 84.9 108.3-38.3 108.3-84.9c0-1.9 0-2.8 0-4.7V201.6l275.3-18.7v205.3c-18.7-13.1-43.9-20.5-70.9-20.5 -59.7 0-108.3 38.3-108.3 84.9s48.5 84.9 108.3 84.9c54.1 0 98.9-31.7 106.4-71.9 0.9-1.9 0.9-4.7 0.9-6.5L744.1 452.7 744.1 452.7zM431.5 164.3v-35.5l275.3-18.7v35.5L431.5 164.3z"/></g></svg>