<svg xmlns="http://www.w3.org/2000/svg" xmlns:xlink="http://www.w3.org/1999/xlink" version="1.1" id="Capa_1" x="0" y="0" viewBox="0 0 960 560" xml:space="preserve" enable-background="new 0 0 960 560"><style type="text/css">
	.st0{fill:#1659A2;}
</style><g id="_x33_"><g id="XMLID_45_"><path class="st0" d="M718.9 543.2H241.1c-23.3 0-41.1-18.7-41.1-41.1V58.8c0-22.4 18.7-41.1 41.1-41.1H718c22.4 0 41.1 18.7 41.1 41.1v442.4C760 524.5 741.3 543.2 718.9 543.2zM241.1 44.8c-7.5 0-14 6.5-14 14v442.4c0 7.5 6.5 14 14 14H718c7.5 0 14-6.5 14-14V58.8c0-7.5-6.5-14-14-14H241.1z"/><polygon id="XMLID_47_" class="st0" points="498.7 283.7 673.2 283.7 673.2 446.1 498.7 446.1 "/><rect x="277.5" y="290.3" class="st0" width="186.7" height="17.7"/><rect x="277.5" y="357.5" class="st0" width="186.7" height="17.7"/><rect x="277.5" y="420.9" class="st0" width="186.7" height="17.7"/><polygon id="XMLID_46_" class="st0" points="276.5 104.5 685.3 104.5 685.3 220.3 276.5 220.3 "/></g></g></svg>