<svg xmlns="http://www.w3.org/2000/svg" xmlns:xlink="http://www.w3.org/1999/xlink" version="1.1" id="Capa_1" x="0" y="0" viewBox="0 0 50 50" xml:space="preserve" enable-background="new 0 0 50 50"><style type="text/css">
	.st0{fill:#FFFFFF;}
</style><path class="st0" d="M25 2.5C12.6 2.5 2.5 12.6 2.5 25S12.6 47.5 25 47.5 47.5 37.4 47.5 25 37.4 2.5 25 2.5zM34.1 21.3c0 0.2 0 0.4 0 0.6 0 6.2-4.7 13.2-13.2 13.2 -2.6 0-5.1-0.8-7.1-2.1 0.4 0.1 0.7 0.1 1.1 0.1 2.1 0 4.1-0.8 5.7-2 -2 0-3.7-1.4-4.3-3.2 0.3 0.1 0.6 0.1 0.9 0.1 0.4 0 0.8-0.1 1.2-0.2 -2.1-0.4-3.7-2.3-3.7-4.5v-0.1c0.6 0.4 1.3 0.6 2.1 0.6 -1.3-0.8-2.1-2.2-2.1-3.8 0-0.8 0.2-1.6 0.6-2.3 2.3 2.8 5.7 4.6 9.5 4.8 -0.1-0.4-0.1-0.7-0.1-1.1 0-2.5 2-4.6 4.6-4.6 1.4 0 2.6 0.6 3.4 1.5 1-0.2 2-0.6 2.9-1.1 -0.3 1.1-1 2-2 2.6 1-0.1 1.9-0.3 2.7-0.7C35.7 20 34.9 20.8 34.1 21.3z"/></svg>