<svg xmlns="http://www.w3.org/2000/svg" xmlns:xlink="http://www.w3.org/1999/xlink" version="1.1" id="play" x="0" y="0" viewBox="200 0 558.1 560" xml:space="preserve" enable-background="new 200 0 558.1 560">
            <style type="text/css">
              .black-fill {
                fill: #272727;
              }

              .white-fill {
                fill: #FCFCFC;
              }
            </style>
            <g id="Layer_1">
              <path class="black-fill" d="M480.4 0C326.6-0.7 200.7 123.6 200 277c-0.7 154.9 123.9 280.7 278.5 280.7 153.8 0.4 279.3-124.3 279.6-278.1C758.5 126.2 634.2 0.7 480.4 0z" />
            </g>
            <path class="white-fill" d="M391.3 280c-0.1-34.4 3-67.2 5.4-100 1.5-20.6 13-27.1 32.2-19.1 60.7 25.2 116.1 59.4 167.4 100.5 14.2 11.3 14.2 23.7-0.1 35 -51.8 41.1-107.7 75.5-168.9 100.9 -17.4 7.2-28.8 0.4-30.3-18.5C394.5 345.5 391.4 312.1 391.3 280z" />
          </svg>