<?xml version="1.0" encoding="utf-8"?>
<!-- Generator: Adobe Illustrator 19.0.0, SVG Export Plug-In . SVG Version: 6.00 Build 0)  -->
<svg version="1.1" id="Instagram" class="redes-sociales" xmlns="http://www.w3.org/2000/svg" xmlns:xlink="http://www.w3.org/1999/xlink" x="0px" y="0px"
	 viewBox="-277 368 57 57" style="enable-background:new -277 368 57 57;" xml:space="preserve">
<g>
	<g>
		<path d="M-258.7,394.1v6.9c0,0,6.7,0,9.5,0c-1.5,4.5-3.8,7-9.5,7c-5.8,0-10.3-4.7-10.3-10.4c0-5.8,4.5-10.4,10.3-10.4
			c3,0,5,1.1,6.8,2.6c1.4-1.4,1.3-1.6,5-5.1c-3.1-2.8-7.3-4.6-11.8-4.6c-9.7,0-17.5,7.9-17.5,17.5c0,9.7,7.9,17.5,17.5,17.5
			c14.5,0,18-12.6,16.9-21C-245.3,394.1-258.7,394.1-258.7,394.1z M-227.1,394.4v-6.1h-4.3v6.1h-6.3v4.3h6.3v6.3h4.3v-6.3h6.1v-4.3
			H-227.1z"/>
	</g>
</g>
</svg>
