<?xml version="1.0" encoding="utf-8"?>
<!-- Generator: Adobe Illustrator 19.0.0, SVG Export Plug-In . SVG Version: 6.00 Build 0)  -->
<svg version="1.1" id="Instagram" class="redes-sociales" xmlns="http://www.w3.org/2000/svg" xmlns:xlink="http://www.w3.org/1999/xlink" x="0px" y="0px"
	 viewBox="-277 368 57 57" style="enable-background:new -277 368 57 57;" xml:space="preserve">
<g>
	<path d="M-248.4,373.5c7.4,0,8.2,0,11.1,0.2c2.7,0.1,4.1,0.6,5.1,0.9c1.3,0.5,2.2,1.1,3.2,2.1c1,1,1.6,1.9,2.1,3.2
		c0.4,1,0.8,2.4,0.9,5.1c0.1,2.9,0.2,3.8,0.2,11.1c0,7.4,0,8.2-0.2,11.1c-0.1,2.7-0.6,4.1-0.9,5.1c-0.5,1.3-1.1,2.2-2.1,3.2
		c-1,1-1.9,1.6-3.2,2.1c-1,0.4-2.4,0.8-5.1,0.9c-2.9,0.1-3.8,0.2-11.1,0.2s-8.2,0-11.1-0.2c-2.7-0.1-4.1-0.6-5.1-0.9
		c-1.3-0.5-2.2-1.1-3.2-2.1c-1-1-1.6-1.9-2.1-3.2c-0.4-1-0.8-2.4-0.9-5.1c-0.1-2.9-0.2-3.8-0.2-11.1c0-7.4,0-8.2,0.2-11.1
		c0.1-2.7,0.6-4.1,0.9-5.1c0.5-1.3,1.1-2.2,2.1-3.2c1-1,1.9-1.6,3.2-2.1c1-0.4,2.4-0.8,5.1-0.9
		C-256.7,373.5-255.8,373.5-248.4,373.5 M-248.4,368.5c-7.5,0-8.4,0-11.4,0.2c-2.9,0.1-4.9,0.6-6.7,1.3c-1.8,0.7-3.4,1.6-4.9,3.2
		c-1.5,1.5-2.5,3.1-3.2,4.9c-0.7,1.8-1.1,3.8-1.3,6.7c-0.1,2.9-0.2,3.9-0.2,11.4s0,8.4,0.2,11.4c0.1,2.9,0.6,4.9,1.3,6.7
		c0.7,1.8,1.6,3.4,3.2,4.9c1.5,1.5,3.1,2.5,4.9,3.2c1.8,0.7,3.8,1.1,6.7,1.3c2.9,0.1,3.9,0.2,11.4,0.2s8.4,0,11.4-0.2
		c2.9-0.1,4.9-0.6,6.7-1.3c1.8-0.7,3.4-1.6,4.9-3.2c1.5-1.5,2.5-3.1,3.2-4.9c0.7-1.8,1.1-3.8,1.3-6.7c0.1-2.9,0.2-3.9,0.2-11.4
		c0-7.5,0-8.4-0.2-11.4c-0.1-2.9-0.6-4.9-1.3-6.7c-0.7-1.8-1.6-3.4-3.2-4.9c-1.5-1.5-3.1-2.5-4.9-3.2c-1.8-0.7-3.8-1.1-6.7-1.3
		C-240,368.5-240.9,368.5-248.4,368.5L-248.4,368.5z"/>
	<path d="M-248.4,381.9c-7.8,0-14.2,6.3-14.2,14.2c0,7.8,6.3,14.2,14.2,14.2c7.8,0,14.2-6.3,14.2-14.2
		C-234.3,388.3-240.6,381.9-248.4,381.9z M-248.4,405.3c-5.1,0-9.2-4.1-9.2-9.2c0-5.1,4.1-9.2,9.2-9.2c5.1,0,9.2,4.1,9.2,9.2
		C-239.2,401.2-243.3,405.3-248.4,405.3z"/>
	<circle cx="-233.7" cy="381.4" r="3.3"/>
</g>
</svg>